<?xml version="1.0" standalone="no"?>
<!DOCTYPE svg PUBLIC "-//W3C//DTD SVG 20010904//EN"
 "http://www.w3.org/TR/2001/REC-SVG-20010904/DTD/svg10.dtd">
<svg version="1.0" xmlns="http://www.w3.org/2000/svg"
 width="964.000000pt" height="814.000000pt" viewBox="0 0 964.000000 814.000000"
 preserveAspectRatio="xMidYMid meet">

<g transform="translate(0.000000,814.000000) scale(0.100000,-0.100000)"
fill="#000000" stroke="none">
<path d="M877 8105 c-180 -63 -358 -176 -497 -315 -225 -225 -339 -494 -356
-835 -16 -323 77 -569 310 -812 170 -179 406 -331 686 -444 52 -21 88 -40 80
-43 -34 -12 -282 -66 -370 -81 -189 -32 -260 -57 -417 -148 -239 -137 -321
-249 -247 -337 47 -55 91 -71 363 -130 97 -21 199 -47 226 -57 74 -28 176 -17
243 25 60 39 164 146 223 230 51 74 43 84 79 -98 48 -237 71 -387 66 -425 -3
-22 -28 -110 -57 -195 -44 -131 -52 -170 -56 -250 l-5 -95 39 -60 c92 -141
226 -209 438 -222 119 -7 263 8 395 42 l95 24 35 -42 c213 -255 456 -398 726
-428 55 -6 115 -13 134 -16 55 -8 100 -64 155 -194 26 -63 58 -132 71 -154 21
-36 25 -67 44 -315 45 -591 78 -910 117 -1130 58 -327 15 -545 -155 -780 -66
-91 -136 -225 -146 -277 -8 -46 11 -91 48 -111 50 -28 182 -22 376 17 91 18
175 39 187 47 29 18 43 71 43 161 l0 71 31 7 c41 9 97 67 105 109 3 19 1 81
-5 138 -13 127 -28 307 -36 453 l-7 110 52 165 c59 192 69 275 70 603 0 108 3
197 8 197 33 -1 46 -46 82 -275 21 -132 25 -145 70 -220 72 -121 97 -176 125
-270 28 -97 27 -95 107 -228 115 -190 147 -310 155 -572 6 -182 -7 -349 -33
-426 -8 -27 -37 -73 -66 -105 -74 -85 -110 -166 -106 -241 3 -57 4 -58 43 -78
74 -37 385 -20 552 30 74 22 86 48 91 195 l4 115 58 28 c73 34 102 72 108 143
6 70 -11 120 -108 324 -43 91 -87 199 -98 240 -11 41 -32 116 -47 165 -24 78
-28 107 -29 220 0 72 5 182 12 245 6 63 12 240 12 393 l0 278 138 -8 c224 -13
1038 -9 1217 5 494 40 816 110 1035 224 72 37 130 79 233 169 l137 119 103
-82 104 -83 6 -149 c16 -351 3 -693 -34 -911 -52 -306 -131 -636 -210 -879
-63 -197 -104 -280 -163 -336 -78 -73 -176 -200 -212 -275 -86 -176 -11 -246
281 -262 167 -9 319 26 392 90 21 18 52 65 74 111 35 71 44 82 91 108 70 38
84 53 104 104 20 53 16 103 -20 227 -37 126 -35 150 22 238 80 123 113 181
292 514 174 321 271 491 318 554 14 18 33 54 42 79 l17 45 40 -59 c90 -133
143 -274 163 -438 15 -113 8 -529 -10 -686 -10 -91 -13 -98 -66 -177 -31 -46
-87 -116 -125 -157 -62 -66 -69 -78 -69 -115 0 -38 3 -42 43 -63 39 -21 54
-23 202 -22 118 0 177 5 225 17 138 37 208 111 217 230 5 61 7 64 38 76 18 6
41 23 50 38 19 29 19 40 -13 253 -39 254 -54 470 -49 685 5 216 18 293 89 525
23 75 32 125 32 175 0 79 -9 99 -90 215 -28 41 -79 124 -113 184 l-60 109 45
51 c25 27 60 77 77 111 l32 60 -1 245 c0 154 -7 303 -17 400 -17 152 -16 156
3 208 56 148 89 693 60 993 -21 209 -78 415 -143 515 -22 34 -37 76 -50 139
-26 126 -73 220 -143 284 -132 121 -407 213 -984 330 -354 72 -381 79 -529
133 -292 107 -374 111 -616 30 -320 -108 -796 -182 -1162 -182 -192 0 -144
-12 -557 144 -310 118 -502 165 -733 182 l-91 7 25 65 c51 137 67 226 67 387
-1 163 -12 230 -64 386 -55 165 -178 378 -289 501 -64 70 -242 215 -275 224
-59 14 -112 -48 -89 -104 132 -320 172 -437 214 -637 32 -150 34 -382 4 -463
-39 -106 -161 -227 -304 -301 -193 -100 -431 -156 -1021 -242 -118 -17 -257
-39 -309 -50 -91 -19 -102 -19 -310 -3 -305 22 -647 23 -728 1 -60 -16 -64
-16 -161 8 -451 109 -741 327 -807 606 -70 297 88 697 424 1077 50 57 91 107
91 113 0 18 -40 49 -62 48 -13 0 -53 -11 -91 -24z m-138 -232 c-131 -180 -226
-370 -276 -548 -34 -124 -43 -319 -19 -431 73 -336 411 -594 927 -708 l26 -6
-100 -197 c-74 -147 -104 -197 -116 -195 -38 9 -204 80 -301 130 -158 81 -291
174 -405 284 -214 205 -310 404 -322 663 -18 388 130 731 414 956 63 50 218
149 234 149 5 0 -23 -44 -62 -97z m3480 -31 c166 -163 312 -439 357 -679 22
-121 15 -337 -15 -443 -62 -217 -216 -426 -388 -527 -170 -99 -604 -223 -1063
-302 -134 -23 -448 -71 -467 -71 -9 0 -65 130 -91 210 -49 158 -49 147 6 159
26 5 153 26 282 46 490 76 780 137 944 199 244 92 435 251 495 411 82 219 27
581 -158 1043 -21 52 -21 52 -1 42 11 -6 55 -45 99 -88z m590 -1448 c203 -29
335 -70 736 -226 229 -90 265 -98 451 -98 371 0 911 87 1209 195 114 42 212
54 294 36 29 -6 118 -36 198 -66 120 -45 194 -65 441 -115 765 -157 1055 -258
1123 -391 67 -133 74 -201 49 -480 -25 -266 -22 -250 -259 -1239 -174 -726
-291 -1226 -332 -1425 -28 -137 -28 -242 0 -355 11 -47 21 -98 21 -113 0 -18
-23 -63 -64 -125 -81 -122 -167 -277 -338 -607 -132 -254 -197 -369 -244 -430
-75 -98 -81 -178 -28 -347 42 -134 40 -156 -20 -184 -33 -16 -34 -16 -72 14
-64 51 -162 88 -336 126 l-27 6 35 73 c125 261 295 992 325 1402 20 268 -4
1225 -32 1277 -23 42 -53 22 -326 -214 -147 -127 -291 -246 -318 -265 -194
-128 -601 -212 -1185 -244 -212 -12 -1036 -7 -1161 7 l-56 6 -6 67 c-3 36 -11
104 -17 151 -15 110 -6 177 35 271 94 216 185 568 188 733 2 101 -10 136 -46
136 -48 0 -55 -17 -60 -150 -8 -191 -80 -468 -175 -674 -40 -89 -45 -109 -50
-190 -2 -50 1 -125 7 -166 37 -241 44 -723 16 -995 -22 -210 -16 -300 33 -485
22 -80 42 -162 45 -184 4 -21 42 -113 85 -205 118 -247 130 -291 90 -329 -38
-35 -66 -39 -260 -34 l-188 4 8 42 c4 22 7 151 6 286 0 353 -26 458 -169 687
-50 80 -78 136 -84 169 -6 27 -16 67 -24 89 -20 57 -94 202 -127 250 -22 32
-31 63 -44 155 -20 135 -62 315 -106 453 -56 174 -161 407 -208 460 -28 32
-82 16 -82 -25 0 -10 31 -82 70 -161 66 -134 146 -335 136 -344 -7 -7 -128 38
-210 79 -155 78 -302 195 -376 300 -27 38 -69 119 -95 181 -109 259 -145 292
-334 308 -253 22 -435 110 -628 305 l-103 103 73 73 c48 49 85 98 111 148 22
41 108 201 191 355 129 237 155 292 168 355 8 41 22 101 32 132 15 53 19 58
52 64 40 8 78 -1 203 -45 162 -57 301 -49 426 25 76 45 343 295 367 343 41 85
-2 163 -122 217 -105 48 -253 99 -347 119 l-79 17 -182 -36 c-229 -45 -276
-46 -331 -7 -58 43 -59 49 -5 56 390 52 869 155 1149 246 325 105 454 190 582
382 l45 67 75 0 c41 0 122 -7 181 -16z m-2625 -219 c201 -14 215 -18 216 -55
0 -43 57 -208 107 -310 45 -94 68 -127 122 -181 112 -111 162 -118 453 -64
155 29 195 33 231 25 79 -17 209 -61 301 -102 125 -54 140 -77 84 -125 -18
-16 -85 -79 -149 -140 -126 -122 -183 -156 -283 -173 -73 -12 -160 3 -256 43
-65 27 -87 31 -165 32 -126 0 -142 -10 -172 -105 -12 -41 -28 -106 -34 -145
-9 -60 -27 -101 -123 -280 -62 -116 -131 -240 -152 -275 -22 -36 -46 -81 -54
-100 -38 -95 -122 -190 -204 -229 -86 -42 -238 -65 -421 -65 -156 -1 -175 1
-230 23 -87 35 -141 75 -182 136 -44 67 -43 74 33 339 36 124 54 207 54 243 0
30 -16 134 -35 231 -57 290 -85 470 -91 576 -5 91 -3 109 21 186 52 163 228
504 269 520 34 14 442 11 660 -5z m-1044 -620 c0 -31 -3 -35 -37 -44 -21 -6
-148 -38 -283 -71 -135 -34 -253 -69 -262 -77 -24 -21 -23 -46 3 -69 21 -19
24 -18 292 50 150 38 278 71 285 74 21 7 4 -26 -66 -132 -77 -115 -197 -246
-247 -270 -33 -16 -36 -16 -74 3 -50 26 -147 53 -334 91 -159 33 -257 64 -257
83 0 22 100 103 201 164 149 88 234 122 353 139 55 9 171 33 256 54 85 21 158
38 163 39 4 1 7 -15 7 -34z m8321 -485 c52 -293 27 -960 -42 -1119 -19 -46
-19 -50 -4 -197 9 -82 19 -251 22 -376 5 -199 4 -233 -11 -272 -18 -48 -71
-126 -84 -126 -9 0 -18 25 -62 175 -48 168 -53 207 -40 299 6 44 43 207 82
361 84 339 104 443 119 646 15 188 3 354 -36 504 -26 100 -26 107 -8 275 l6
55 19 -55 c10 -30 28 -107 39 -170z m-124 -510 c-4 -117 -13 -231 -26 -310
-27 -158 -122 -544 -132 -533 -8 9 -29 193 -29 262 0 26 27 160 59 297 33 137
72 309 87 381 37 174 48 149 41 -97z m-247 -1090 c54 -356 168 -658 350 -928
105 -156 106 -165 51 -369 -71 -257 -81 -328 -81 -551 0 -108 5 -251 10 -317
12 -131 47 -433 56 -478 7 -35 -13 -36 -64 -2 -57 37 -144 65 -207 65 l-55 0
8 78 c13 135 8 670 -6 737 -46 211 -145 395 -296 553 l-61 64 -3 86 c-3 77 3
119 61 377 163 726 202 886 209 858 3 -15 16 -93 28 -173z m-1211 -443 l1 -48
-60 47 c-33 26 -60 50 -60 53 0 3 23 27 52 53 l53 46 7 -51 c3 -29 6 -74 7
-100z m-4462 -212 c87 -81 291 -205 402 -243 l29 -10 7 -184 c4 -101 2 -248
-3 -328 -9 -133 -14 -159 -62 -309 l-52 -165 12 -180 c6 -100 17 -253 26 -340
8 -88 12 -168 8 -178 -7 -24 -36 -23 -109 7 -34 13 -103 30 -152 37 l-90 12
18 41 c74 167 96 370 61 565 -41 225 -63 420 -107 920 -13 157 -27 309 -30
338 -4 28 -4 52 -1 52 3 0 22 -16 43 -35z m-16 -2084 c-21 -44 -46 -109 -56
-145 l-18 -66 -64 0 c-62 0 -64 1 -57 23 11 37 44 99 86 162 60 90 77 105 114
105 l33 0 -38 -79z m182 53 c49 -17 50 -18 62 -102 10 -81 4 -87 -98 -111
-136 -31 -131 -33 -103 42 23 60 83 187 89 187 2 0 25 -7 50 -16z m5597 -71
c-100 -235 -96 -228 -118 -227 -12 0 -49 1 -83 2 l-61 2 44 51 c36 43 84 106
163 217 11 15 26 22 50 22 l34 0 -29 -67z m195 -51 c0 -65 -2 -73 -30 -102
-27 -28 -122 -67 -144 -58 -5 2 11 48 36 103 24 55 51 115 59 133 l14 34 32
-19 c32 -19 33 -21 33 -91z m-1732 -188 c15 -5 11 -13 -27 -57 -54 -64 -127
-179 -149 -232 -17 -44 -27 -46 -99 -24 -28 9 -38 18 -38 33 0 32 67 139 139
223 l65 75 46 -7 c25 -3 53 -8 63 -11z m-3048 -92 c-18 -43 -38 -104 -45 -135
l-13 -57 -69 0 c-58 0 -68 3 -68 18 1 32 36 96 84 152 26 30 52 65 57 78 7 18
16 22 48 22 l39 0 -33 -78z m281 65 c4 -4 8 -50 8 -102 1 -72 -3 -98 -13 -104
-16 -10 -222 -44 -228 -38 -5 6 34 118 69 196 l28 63 65 -4 c35 -2 67 -7 71
-11z m3010 -60 c16 -8 37 -23 46 -33 16 -18 15 -23 -13 -89 -20 -49 -38 -76
-58 -88 -43 -25 -147 -47 -229 -47 l-73 0 17 33 c27 52 104 158 157 214 l49
52 38 -14 c21 -7 51 -20 66 -28z"/>
<path d="M3131 5499 c-128 -18 -313 -96 -319 -135 -3 -23 33 -74 52 -74 7 0
35 11 63 25 67 32 163 64 229 76 48 9 64 7 161 -24 135 -43 185 -52 212 -37
43 22 20 84 -35 95 -20 3 -80 21 -133 39 -115 39 -158 46 -230 35z"/>
<path d="M1316 5446 c-28 -22 -29 -24 -16 -57 7 -19 24 -49 37 -66 30 -41 74
-44 117 -9 28 22 29 24 16 57 -7 19 -24 49 -37 67 -30 40 -74 43 -117 8z"/>
<path d="M2272 5441 c-41 -41 -64 -92 -50 -109 20 -24 66 -42 107 -42 47 0 92
33 121 90 18 35 18 38 2 53 -31 27 -60 37 -106 37 -36 0 -50 -6 -74 -29z"/>
<path d="M1353 4495 l-36 -36 6 -87 c6 -111 36 -194 88 -244 30 -29 53 -40
109 -52 158 -36 349 -30 410 14 16 11 55 64 87 118 52 87 58 102 58 154 0 61
-17 94 -68 132 -34 25 -97 25 -216 1 -101 -21 -198 -16 -285 14 -85 30 -111
28 -153 -14z m172 -95 c116 -24 177 -25 282 -5 104 20 130 19 143 -4 22 -42
11 -77 -45 -149 l-55 -70 -67 -8 c-82 -8 -245 10 -292 34 -27 13 -39 28 -52
67 -15 44 -26 155 -15 155 2 0 48 -9 101 -20z"/>
<path d="M1457 4376 c-17 -44 52 -156 88 -142 14 5 17 14 12 47 -9 71 -83 140
-100 95z"/>
<path d="M1804 4341 c-101 -62 -97 -163 4 -112 51 26 84 67 80 100 -4 33 -41
39 -84 12z"/>
</g>
</svg>
